# xmcd
#
# Track frame offsets:
#	150
#	15902
#	32151
#	51840
#	66249
#	80245
#	96855
#	115436
#	137457
#	153444
#	175892
#	193477
#	208823
#	223336
#	240810
#	253701
#	265385
#	284444
#	303240
#
# Disc length: 4310
#
# Revision: 2
# Processed by: cddbd v1.5.1PL0 Copyright (c) Steve Scherf et al.
# Submitted via: NotifyCDPlayer(CDDB) 1.51.3
# Normalized: r1:DSETVAR1,TDELIM( - )
#
DISCID=1d10d413
DTITLE=Various Artist - Alex's Country CD 1
DYEAR=1900
DGENRE=
TTITLE0=Brooks and Dunn - My Maria
TTITLE1=Shania Twain - Don't Be Stupid
TTITLE2=Brooks and Dunn - Neon Moon
TTITLE3=Clay Walker - Rumor Has It
TTITLE4=Clay Walker - 1, 2, I Love You
TTITLE5=Clay Walker - Love A Little Stronger
TTITLE6=Clay Walker - Rope The Moon
TTITLE7=Deanna Carter - Strawberry Wine
TTITLE8=John Micheal Montgomery - Angel In My Eyes
TTITLE9=LeAnn Rimes - How Do I Live
TTITLE10=George Strait - Carrying Your Love
TTITLE11=Deanna Carter - We Danced Anyway
TTITLE12=John Micheal Montgomery - Cowboy Love
TTITLE13=George Strait - One Night At A Time
TTITLE14=Mark Chesnut - Blame It On Texas
TTITLE15=Mark Chesnut - Goin To The Big D
TTITLE16=John Micheal Montgomery - I Miss You A Little
TTITLE17=Mark Chesnut - Almost Goodbye
TTITLE18=Trisha Yearwood - How Do I
EXTD=
EXTT0=
EXTT1=
EXTT2=
EXTT3=
EXTT4=
EXTT5=
EXTT6=
EXTT7=
EXTT8=
EXTT9=
EXTT10=
EXTT11=
EXTT12=
EXTT13=
EXTT14=
EXTT15=
EXTT16=
EXTT17=
EXTT18=
PLAYORDER=
